<svg width="186" height="76" viewBox="0 0 186 76" fill="none" xmlns="http://www.w3.org/2000/svg">
<g clip-path="url(#clip0_740_78220)">
<path d="M167.73 46.8771C164.593 47.1172 162.676 47.1172 159.895 47.0437C152.49 46.6525 150.585 44.7587 150.585 34.604C150.585 23.8607 153.586 22.4084 160.317 22.1024C162.161 22.0172 165.468 22.0714 169.004 22.2612C169.434 22.3154 170.499 22.3038 170.456 21.3124L170.394 16.785C170.394 16.6068 170.332 16.0259 169.542 15.7935C166.405 14.8873 161.212 15.0461 158.749 15.0461C152.924 15.0461 148.47 16.5526 145.519 19.5115C142.254 22.7995 140.875 28.8528 140.875 36.2151C138.315 32.4856 134.419 30.3904 128.796 30.4446C124.288 30.4872 121.317 30.0766 121.317 26.1999C121.317 23.609 123.742 22.0598 129.183 22.0598C133.029 22.0598 136.859 22.7531 138.335 23.0087C138.904 23.1016 139.241 22.7337 139.241 22.3038V16.9012C139.241 16.0182 138.482 15.8361 138.029 15.7316C134.923 15.0151 130.012 15.0577 128.443 15.0577C120.915 15.0577 111.941 17.7106 111.941 26.1379C111.941 36.281 118.692 38.4188 125.612 38.7557C130.469 39.0385 133.165 39.387 133.207 43.2405C133.25 47.3883 127.762 47.1598 123.242 47.1676C121.399 47.1676 119.23 46.8926 117.22 46.8926C114.935 46.8926 114.61 46.8074 114.06 45.2815C113.355 43.3218 104.455 17.9507 104.075 16.8663C103.928 16.4442 103.413 16.0763 102.948 16.0763H94.2267C93.7736 16.0763 93.2585 16.4326 93.0997 16.8663L79.8623 53.4958C79.6958 53.9606 79.9901 54.2665 80.4006 54.2665L87.9953 54.2859C88.4484 54.2859 88.9558 53.9064 89.0991 53.4649L91.3221 46.8074C91.4809 46.3427 91.996 45.9747 92.4801 45.9747H104.412C104.896 45.9747 105.412 46.3543 105.57 46.8074C106.477 49.5029 107.267 51.8731 107.793 53.4649C107.983 54.0535 108.425 54.2859 109.362 54.2859H125.066C138.958 54.2859 141.17 50.7035 142.266 45.5875C145.929 55.4362 155.337 54.3285 160.127 54.3711C162.412 54.3905 165.836 54.4021 169.616 53.9064C170.015 53.8522 170.383 53.4106 170.394 52.9808L170.437 47.7369C170.437 46.5479 169.868 46.7377 167.71 46.9042L167.73 46.8733V46.8771ZM102.402 39.4219H94.7573C94.2422 39.4219 93.9866 39.0113 94.1377 38.5698L98.6031 24.4804L103.014 38.5698C103.173 39.0539 102.855 39.4219 102.395 39.4219H102.406H102.402ZM84.6956 69.1538H79.6493V61.4778H84.5562V62.3298H80.7531V64.7852H84.3548V65.6373H80.7531V68.3134H84.6918V69.1654V69.1538H84.6956ZM88.7621 63.2322C90.0595 63.2322 90.9852 63.5692 90.9852 65.2035V69.1654H89.955V65.3855C89.955 64.2818 89.3973 64.0571 88.6576 64.0571C88.1115 64.0571 87.4376 64.1733 86.9419 64.3631V69.1538H85.9001V63.8441C86.8257 63.4646 87.8791 63.2322 88.7854 63.2322H88.766H88.7621ZM95.8727 63.4104C96.4614 63.4104 96.9455 63.3678 97.6426 63.2632L97.7356 63.9061C97.1779 63.9913 96.6318 64.0726 96.2406 64.0726C96.566 64.4096 96.7364 64.8433 96.7364 65.3352C96.7364 66.7139 95.7681 67.3452 94.3546 67.3452C94.1028 67.3452 93.8085 67.3258 93.6071 67.291C93.5219 67.4188 93.4599 67.6279 93.4599 67.8177C93.4599 67.9649 93.5025 68.1236 93.5761 68.2398H95.4002C96.7054 68.2515 97.4025 68.662 97.4025 69.6186C97.4025 70.9237 96.2329 71.7564 94.2422 71.7564C92.6621 71.7564 91.6629 71.1755 91.6629 70.2189C91.6629 69.4598 92.2516 69.0067 92.8519 68.693C92.6737 68.5342 92.5885 68.2941 92.5885 68.0384C92.5885 67.6899 92.7473 67.3103 93.0223 67.0586C92.3484 66.7217 92.0115 66.1098 92.0115 65.3119C92.0115 64.1114 92.7822 63.3329 94.4862 63.3329C94.9394 63.3329 95.3809 63.4065 95.8882 63.4065H95.8766L95.8727 63.4104ZM93.5141 69.0454C92.999 69.2119 92.7125 69.6031 92.7125 70.0756C92.7125 70.6216 93.4483 70.9586 94.3855 70.9586C95.5435 70.9586 96.3026 70.5674 96.3026 69.7154C96.3026 69.3165 96.0625 69.0609 95.133 69.0531H93.5103V69.0415L93.5141 69.0454ZM94.3662 66.6752C95.439 66.6752 95.7991 66.0439 95.7991 65.3274C95.7991 64.5064 95.4196 64.03 94.3894 64.03C93.4406 64.03 93.0107 64.5335 93.0107 65.3158C93.0107 65.9587 93.274 66.6752 94.37 66.6752H94.3662ZM98.7657 61.0324H99.7998V62.233H98.7657V61.0324ZM99.7998 69.1422H98.7657V63.3716H99.7998V69.1422ZM104.211 63.2245C105.508 63.2245 106.434 63.5614 106.434 65.1958V69.1577H105.4V65.3778C105.4 64.274 104.842 64.0494 104.103 64.0494C103.556 64.0494 102.883 64.1656 102.387 64.3554V69.1461H101.345V63.8364C102.271 63.4568 103.324 63.2245 104.23 63.2245H104.211ZM107.542 66.2453C107.542 64.7194 108.394 63.2438 110.334 63.2438C112.038 63.2438 112.863 64.0765 112.863 65.4243C112.863 65.6992 112.82 65.982 112.77 66.3073H108.653C108.653 67.899 109.486 68.4761 110.927 68.4761C111.275 68.4761 111.999 68.3909 112.526 68.1934L112.662 68.9834C111.926 69.2468 111.314 69.2894 110.524 69.2894C108.479 69.2894 107.542 68.205 107.542 66.2337V66.2453ZM108.676 65.5521H111.782C111.794 65.4785 111.794 65.4165 111.794 65.3429C111.794 64.4793 111.248 63.9952 110.373 63.9952C109.044 63.9952 108.688 65.1532 108.676 65.5443V65.5559V65.5521ZM113.943 66.2453C113.943 64.7194 114.796 63.2438 116.736 63.2438C118.44 63.2438 119.265 64.0765 119.265 65.4243C119.265 65.6992 119.222 65.982 119.172 66.3073H115.055C115.055 67.899 115.888 68.4761 117.328 68.4761C117.677 68.4761 118.401 68.3909 118.928 68.1934L119.063 68.9834C118.328 69.2468 117.716 69.2894 116.926 69.2894C114.881 69.2894 113.943 68.205 113.943 66.2337V66.2453ZM115.082 65.5521H118.188C118.2 65.4785 118.2 65.4165 118.2 65.3429C118.2 64.4793 117.654 63.9952 116.778 63.9952C115.45 63.9952 115.094 65.1532 115.082 65.5443V65.5559V65.5521ZM123.486 64.2121C123.211 64.1578 122.96 64.1385 122.812 64.1385C122.286 64.1385 121.74 64.243 121.441 64.487V69.1306H120.4V63.36H121.306L121.391 63.9061C121.863 63.422 122.475 63.2864 123.056 63.2864C123.203 63.2864 123.405 63.2981 123.626 63.3407L123.49 64.2043V64.2159L123.486 64.2121ZM123.761 66.2337C123.761 64.7078 124.613 63.2322 126.554 63.2322C128.258 63.2322 129.082 64.0649 129.082 65.4126C129.082 65.6876 129.04 65.9703 128.99 66.2957H124.873C124.873 67.8874 125.705 68.4645 127.146 68.4645C127.495 68.4645 128.219 68.3793 128.746 68.1817L128.881 68.9718C128.145 69.2352 127.533 69.2778 126.743 69.2778C124.698 69.2778 123.761 68.1934 123.761 66.2221V66.2337ZM124.896 65.5404H128.002C128.014 65.4669 128.014 65.4049 128.014 65.3313C128.014 64.4677 127.468 63.9836 126.592 63.9836C125.264 63.9836 124.908 65.1415 124.896 65.5327V65.5443V65.5404ZM132.859 63.2129C133.323 63.2129 133.858 63.2555 134.322 63.391V60.9279H135.357V68.9641C134.566 69.0996 133.714 69.2468 132.901 69.2468C131.302 69.2468 129.942 68.6775 129.942 66.4351C129.942 64.611 130.678 63.2012 132.859 63.2012V63.2129ZM134.322 64.2004C133.858 64.0533 133.416 63.9913 133.037 63.9913C131.817 63.9913 131.077 64.7271 131.077 66.4235C131.077 67.9068 131.91 68.5071 133.122 68.5071C133.501 68.5071 133.889 68.4528 134.322 68.3483V64.2004ZM139.547 67.93C140.105 68.1624 141.011 68.4025 141.782 68.4025C142.73 68.4025 143.594 68.1082 143.594 67.1167C143.594 66.2105 142.761 65.9161 141.762 65.5985C140.329 65.1261 139.373 64.6381 139.373 63.4414C139.373 61.7993 140.751 61.3229 142.215 61.3229C142.901 61.3229 143.648 61.4391 144.299 61.5863L144.078 62.3879C143.613 62.2718 142.858 62.1246 142.223 62.1246C141.359 62.1246 140.538 62.3763 140.538 63.2826C140.538 64.1346 141.371 64.4406 142.339 64.7581C143.846 65.2616 144.771 65.7883 144.771 67.0005C144.771 68.6542 143.288 69.2739 141.716 69.2739C140.906 69.2739 140.031 69.0957 139.326 68.7898L139.578 67.9261H139.547V67.93ZM145.562 66.2569C145.562 64.0262 146.669 63.2245 148.404 63.2245C150.139 63.2245 151.173 64.0029 151.173 66.2453C151.173 68.4877 150.066 69.2894 148.338 69.2894C146.452 69.2894 145.558 68.4993 145.558 66.2569H145.562ZM146.658 66.2569C146.658 67.9532 147.269 68.5109 148.362 68.5109C149.299 68.5109 150.066 67.9532 150.066 66.2569C150.066 64.4134 149.403 64.0029 148.369 64.0029C147.463 64.0029 146.654 64.4134 146.654 66.2569H146.658ZM153.427 61.0828V67.9184C153.427 68.3405 153.648 68.4877 153.985 68.4877C154.194 68.4877 154.457 68.4451 154.732 68.3599L154.86 69.0957C154.365 69.2545 153.923 69.3049 153.722 69.3049C152.386 69.3049 152.351 68.387 152.351 67.9997V61.1021H153.423V61.0789L153.427 61.0828ZM160.515 68.8672C159.608 69.1616 158.671 69.2894 157.869 69.2894C156.626 69.2894 155.48 68.8982 155.48 67.2135V63.3484H156.522V67.1516C156.522 68.1934 157.184 68.4877 158.195 68.4877C158.617 68.4877 159.047 68.4141 159.469 68.2863V63.3484H160.522V68.8556L160.511 68.8672H160.515ZM165.383 69.0144C164.856 69.1809 164.562 69.2468 164.109 69.2468C162.707 69.2468 162.412 68.7937 162.412 67.6473V64.1307H161.56V63.36H162.412V61.7683H163.477V63.36H165.553L165.394 64.1307H163.477V67.7635C163.477 68.1546 163.489 68.48 164.163 68.48C164.426 68.48 164.732 68.4606 165.236 68.3018L165.394 69.0299L165.383 69.0183V69.0144ZM166.401 61.0208H167.435V62.2214H166.401V61.0208ZM167.435 69.1306H166.401V63.36H167.435V69.1306ZM168.698 66.2569C168.698 64.0262 169.806 63.2245 171.541 63.2245C173.276 63.2245 174.31 64.0029 174.31 66.2453C174.31 68.4877 173.202 69.2894 171.475 69.2894C169.589 69.2894 168.694 68.4993 168.694 66.2569H168.698ZM169.794 66.2569C169.794 67.9532 170.406 68.5109 171.498 68.5109C172.435 68.5109 173.202 67.9532 173.202 66.2569C173.202 64.4134 172.54 64.0029 171.506 64.0029C170.6 64.0029 169.79 64.4134 169.79 66.2569H169.794ZM178.369 63.2129C179.666 63.2129 180.592 63.5498 180.592 65.1841V69.1461H179.558V65.3662C179.558 64.2624 179 64.0378 178.26 64.0378C177.714 64.0378 177.04 64.154 176.544 64.3437V69.1345H175.491V63.8248C176.417 63.4452 177.47 63.2129 178.376 63.2129H178.365H178.369ZM181.897 68.1004C182.319 68.2592 182.919 68.4064 183.539 68.4064C184.414 68.4064 184.825 68.0075 184.825 67.6047C184.825 66.2337 181.761 66.834 181.761 64.9208C181.761 63.8906 182.636 63.2051 183.996 63.2051C184.712 63.2051 185.344 63.3716 185.661 63.5111L185.452 64.2392C185.189 64.154 184.631 64.0378 184.093 64.0378C183.438 64.0378 182.818 64.2043 182.818 64.8278C182.818 66.1253 185.905 65.5753 185.905 67.4614C185.905 68.387 185.158 69.2855 183.523 69.2855C182.787 69.2855 181.986 69.0841 181.63 68.8634L181.912 68.1043H181.901L181.897 68.1004Z" fill="black"/>
<path d="M57.5236 20.3054L49.2357 25.0884C49.1079 24.8676 48.9181 24.6662 48.6896 24.5307L23.4231 9.9416C22.7182 9.54269 21.8546 9.54269 21.1575 9.9416L9.13222 16.8818C8.66747 17.1567 8.37314 17.6525 8.37314 18.1869V32.1525C8.37314 32.7334 7.74186 33.1013 7.23451 32.807L0.948859 29.1742C0.360184 28.8373 7.62939e-06 28.2176 7.62939e-06 27.5399V13.4388C7.62939e-06 12.9005 0.282727 12.397 0.759089 12.1336L21.3279 0.251697C21.9088 -0.0852418 22.633 -0.0852418 23.2139 0.251697L56.9582 19.7361C57.1906 19.8716 57.3803 20.0614 57.5043 20.2938L57.5236 20.3054ZM71.5202 11.1306L52.7871 0.317536C52.0823 -0.081369 51.2186 -0.081369 50.5215 0.317536L44.5069 3.79149C43.9996 4.08583 43.9996 4.81393 44.5069 5.09665L63.2438 15.9136C63.5382 16.084 63.7706 16.3241 63.9371 16.6068L72.225 11.8238C72.0662 11.5411 71.8261 11.2971 71.5318 11.1267H71.5202V11.1306ZM36.2074 49.2589C35.8821 49.2589 35.5529 49.1737 35.2585 49.0072L24.0427 42.5317C23.4618 42.1948 23.1055 41.5751 23.0939 40.909L23.0319 26.7653C23.0319 26.2192 23.3146 25.7235 23.791 25.4485L29.4376 22.1837C29.945 21.8894 29.945 21.1729 29.4376 20.8786L23.2643 17.2768C22.6756 16.9399 21.9591 16.9282 21.3666 17.2768L15.7626 20.5106C15.1739 20.8476 14.8137 21.4672 14.8137 22.145V45.6842C14.8137 46.3581 15.17 46.9817 15.7626 47.3186L35.2585 58.577C35.5529 58.7435 35.8782 58.8287 36.2074 58.8287V49.2666V49.2589Z" fill="#00B9F0"/>
<path d="M49.2357 25.0884L57.5236 20.3054C57.6514 20.5262 57.725 20.7895 57.725 21.0645V28.8141C57.725 29.3524 57.4423 29.8481 56.9776 30.1192L50.5757 33.8914C50.0722 34.1858 49.4371 33.8294 49.4371 33.2369V25.8552C49.4371 25.5803 49.3635 25.3285 49.2357 25.0961V25.0845V25.0884ZM63.9293 16.6068C64.0881 16.8896 64.1811 17.2187 64.1811 17.5557V32.532C64.1811 33.0704 63.8984 33.5738 63.422 33.8372L37.1563 49.0033C36.8619 49.1699 36.5366 49.2551 36.2074 49.2551V58.8172C36.5327 58.8172 36.8619 58.732 37.1563 58.5654L71.5202 38.7247C72.1011 38.3878 72.469 37.7681 72.469 37.0943V12.765C72.469 12.428 72.3761 12.1027 72.2173 11.8161L63.9293 16.5991V16.6107V16.6068Z" fill="#0073A5"/>
<path d="M35.2702 66.0245L9.31812 51.0366C8.72944 50.6996 8.36927 50.0761 8.36927 49.4061V41.8037C8.36927 41.2653 8.08655 40.7619 7.61019 40.4985L1.13476 36.7612C0.631289 36.4669 -0.00386047 36.8348 -0.00386047 37.4157V54.1504C-0.00386047 54.8242 0.356316 55.4478 0.944991 55.7808L35.2586 75.5905C35.5529 75.7571 35.8782 75.8423 36.2074 75.8423V66.2802C35.8821 66.2802 35.5529 66.195 35.2586 66.0284H35.2702V66.0245Z" fill="#AAAAAA"/>
<path d="M37.1563 75.5866L71.7099 55.6375C72.1747 55.3626 72.469 54.8668 72.469 54.3324V46.9507C72.469 46.3698 71.8377 46.0019 71.3304 46.2962L37.1563 66.0323C36.8619 66.1988 36.5366 66.284 36.2074 66.284V75.8461C36.5327 75.8461 36.8619 75.7609 37.1563 75.5944V75.5828V75.5866Z" fill="black"/>
<path d="M174.701 52.911C173.256 52.942 172.435 52.121 172.404 50.7539C172.373 49.3751 173.152 48.5231 174.596 48.4805C176.041 48.4495 176.862 49.2706 176.905 50.6415C176.936 52.0203 176.157 52.8723 174.713 52.9149H174.701V52.911ZM174.701 52.5431C175.921 52.5121 176.513 51.784 176.482 50.657C176.451 49.53 175.84 48.8252 174.608 48.8562C173.388 48.8871 172.795 49.6152 172.826 50.7422C172.857 51.8692 173.469 52.5741 174.701 52.5431ZM175.588 51.7531H175.166L174.767 51.0056H174.24L174.259 51.784H173.868L173.814 49.592L174.666 49.5726C175.266 49.561 175.541 49.7004 175.549 50.2581C175.549 50.5835 175.359 50.8584 175.127 50.9204L175.568 51.7414L175.58 51.7531H175.588ZM174.767 50.6803C175.104 50.6803 175.177 50.5951 175.177 50.2465C175.177 49.9832 175.073 49.8786 174.755 49.8863H174.228L174.248 50.688H174.775L174.763 50.6764L174.767 50.6803Z" fill="black"/>
</g>
<defs>
<clipPath id="clip0_740_78220">
<rect width="185.897" height="75.85" fill="white"/>
</clipPath>
</defs>
</svg>
